<?xml version="1.0" encoding="UTF-8"?>
<svg version="1.1" xmlns="http://www.w3.org/2000/svg" width="80" height="80">
<path d="M0 0 C2.5 0.125 2.5 0.125 3.5 1.125 C3.95710967 6.03892897 2.86045532 8.85802307 0.5 13.125 C0.17 14.053125 -0.16 14.98125 -0.5 15.9375 C-0.83 16.659375 -1.16 17.38125 -1.5 18.125 C-4.5 19.125 -4.5 19.125 -7.5 18.125 C-8.34454356 14.74682575 -8.60844919 12.45034757 -7.5 9.125 C-10.45451039 10.27397626 -12.14751221 11.52401927 -13.7578125 14.26953125 C-16.29423886 20.04300523 -16.86592823 23.97832295 -15.5 30.125 C-10.2046288 30.62932107 -7.63295494 29.41257779 -3.5 26.125 C-2.84 25.135 -2.18 24.145 -1.5 23.125 C1.0625 22.875 1.0625 22.875 3.5 23.125 C4.5 24.125 4.5 24.125 4.5625 27.25 C3.85868954 31.80130767 1.02644535 33.92989889 -2.45703125 36.6796875 C-7.48665514 40.23793002 -12.42286335 41.12002413 -18.5 40.125 C-22.25182206 38.0785516 -23.79468811 36.86790405 -25.37890625 32.953125 C-27.20402071 25.74449681 -26.60107178 18.52619247 -23.38671875 11.79296875 C-20.60573987 7.15226406 -17.78495483 2.88665161 -12.5 1.125 C-10.95894034 1.08174219 -9.4161435 1.08483991 -7.875 1.125 C-6.41715517 1.16274356 -4.95759317 1.17145715 -3.5 1.125 C-2.5 0.125 -2.5 0.125 0 0 Z M-0.5 3.125 C-1.551875 3.3725 -1.551875 3.3725 -2.625 3.625 C-5.5 4.125 -5.5 4.125 -8.4375 3.9375 C-12.57078488 4.19055826 -14.35578972 5.4592565 -17.5 8.125 C-21.49325624 13.58878869 -22.64594689 18.47650311 -22.6875 25.125 C-22.70167969 26.15625 -22.71585938 27.1875 -22.73046875 28.25 C-22.4963654 31.17034015 -22.18312173 32.74632954 -20.5 35.125 C-16.88028541 37.57116502 -14.0103924 37.3039427 -9.828125 36.75 C-5.9941161 35.72073587 -3.53379193 33.64240182 -0.5 31.125 C-0.83 30.465 -1.16 29.805 -1.5 29.125 C-2.469375 29.785 -3.43875 30.445 -4.4375 31.125 C-8.75589579 33.63816476 -12.62632275 33.5228512 -17.5 33.125 C-19.779674 28.42317236 -20.34776376 24.17346556 -18.9296875 19.07421875 C-15.34131307 9.04565654 -15.34131307 9.04565654 -11.5 7.125 C-9.50039988 7.085008 -7.49952758 7.08153201 -5.5 7.125 C-5.5 9.765 -5.5 12.405 -5.5 15.125 C-4.84 15.125 -4.18 15.125 -3.5 15.125 C-2.80314502 13.5039897 -2.11777139 11.87803934 -1.4375 10.25 C-0.86322266 8.89261719 -0.86322266 8.89261719 -0.27734375 7.5078125 C0.8023998 5.14433138 0.8023998 5.14433138 -0.5 3.125 Z M0.5 26.125 C0.5 29.125 0.5 29.125 0.5 29.125 Z " fill="#000000" transform="translate(50.5,19.875)"/>
<path d="M0 0 C1.54179932 -0.01891296 1.54179932 -0.01891296 3.11474609 -0.03820801 C4.77111084 -0.02606262 4.77111084 -0.02606262 6.4609375 -0.01367188 C8.16950928 -0.01941223 8.16950928 -0.01941223 9.91259766 -0.02526855 C12.31999597 -0.02798962 14.72742376 -0.02061498 17.13476562 -0.00390625 C20.82228432 0.01749887 24.50785449 -0.0037032 28.1953125 -0.02929688 C30.53385847 -0.02665364 32.87240323 -0.02152874 35.2109375 -0.01367188 C36.31518066 -0.0217688 37.41942383 -0.02986572 38.55712891 -0.03820801 C39.58499512 -0.02559937 40.61286133 -0.01299072 41.671875 0 C43.02611572 0.00477356 43.02611572 0.00477356 44.40771484 0.00964355 C47.67793779 0.69370738 48.85212898 1.85979882 50.8359375 4.51757812 C51.34387207 6.94580078 51.34387207 6.94580078 51.35351562 9.68164062 C51.36612427 10.70950684 51.37873291 11.73737305 51.39172363 12.79638672 C51.38362671 13.90062988 51.37552979 15.00487305 51.3671875 16.14257812 C51.3710144 17.28162598 51.37484131 18.42067383 51.37878418 19.59423828 C51.38150524 22.0016366 51.3741306 24.40906438 51.35742188 26.81640625 C51.33601675 30.50392495 51.35721882 34.18949512 51.3828125 37.87695312 C51.38016926 40.2154991 51.37504437 42.55404386 51.3671875 44.89257812 C51.37528442 45.99682129 51.38338135 47.10106445 51.39172363 48.23876953 C51.37911499 49.26663574 51.36650635 50.29450195 51.35351562 51.35351562 C51.34874207 52.70775635 51.34874207 52.70775635 51.34387207 54.08935547 C50.65980824 57.35957842 49.49371681 58.53376961 46.8359375 60.51757812 C44.40771484 61.0255127 44.40771484 61.0255127 41.671875 61.03515625 C40.64400879 61.04776489 39.61614258 61.06037354 38.55712891 61.07336426 C36.90076416 61.06121887 36.90076416 61.06121887 35.2109375 61.04882812 C33.50236572 61.05456848 33.50236572 61.05456848 31.75927734 61.0604248 C29.35187903 61.06314587 26.94445124 61.05577123 24.53710938 61.0390625 C20.84959068 61.01765738 17.16402051 61.03885945 13.4765625 61.06445312 C11.13801653 61.06180989 8.79947177 61.05668499 6.4609375 61.04882812 C5.35669434 61.05692505 4.25245117 61.06502197 3.11474609 61.07336426 C2.08687988 61.06075562 1.05901367 61.04814697 0 61.03515625 C-1.35424072 61.03038269 -1.35424072 61.03038269 -2.73583984 61.0255127 C-6.00606279 60.34144887 -7.18025398 59.17535743 -9.1640625 56.51757812 C-9.67199707 54.08935547 -9.67199707 54.08935547 -9.68164062 51.35351562 C-9.69424927 50.32564941 -9.70685791 49.2977832 -9.71984863 48.23876953 C-9.71175171 47.13452637 -9.70365479 46.0302832 -9.6953125 44.89257812 C-9.6991394 43.75353027 -9.70296631 42.61448242 -9.70690918 41.44091797 C-9.70963024 39.03351965 -9.7022556 36.62609187 -9.68554688 34.21875 C-9.66414175 30.5312313 -9.68534382 26.84566113 -9.7109375 23.15820312 C-9.70829426 20.81965715 -9.70316937 18.48111239 -9.6953125 16.14257812 C-9.70340942 15.03833496 -9.71150635 13.9340918 -9.71984863 12.79638672 C-9.70723999 11.76852051 -9.69463135 10.7406543 -9.68164062 9.68164062 C-9.67845825 8.77881348 -9.67527588 7.87598633 -9.67199707 6.94580078 C-8.5480865 1.57285461 -5.13766212 0.01810973 0 0 Z M-6.1640625 5.51757812 C-7.08438314 8.27854005 -7.29958029 9.96708483 -7.32519531 12.81787109 C-7.33480286 13.68241913 -7.3444104 14.54696716 -7.35430908 15.43771362 C-7.35855896 16.36899078 -7.36280884 17.30026794 -7.3671875 18.25976562 C-7.37288757 19.22028839 -7.37858765 20.18081116 -7.38446045 21.17044067 C-7.39390708 23.20297139 -7.40044309 25.23551739 -7.40429688 27.26806641 C-7.41400332 30.3736447 -7.44503036 33.47856138 -7.4765625 36.58398438 C-7.48309267 38.55924086 -7.48834309 40.53450208 -7.4921875 42.50976562 C-7.5045343 43.43699432 -7.5168811 44.36422302 -7.52960205 45.31954956 C-7.51295634 50.1497665 -7.46531573 53.68158763 -4.1640625 57.51757812 C-1.40310058 58.43789877 0.2854442 58.65309591 3.13623047 58.67871094 C4.0007785 58.68831848 4.86532654 58.69792603 5.756073 58.70782471 C7.15298874 58.71419952 7.15298874 58.71419952 8.578125 58.72070312 C10.01890915 58.72925323 10.01890915 58.72925323 11.48880005 58.73797607 C13.52133076 58.7474227 15.55387677 58.75395872 17.58642578 58.7578125 C20.69200407 58.76751895 23.79692076 58.79854599 26.90234375 58.83007812 C28.87760024 58.8366083 30.85286146 58.84185871 32.828125 58.84570312 C33.7553537 58.85804993 34.6825824 58.87039673 35.63790894 58.88311768 C40.46812588 58.86647196 43.999947 58.81883136 47.8359375 55.51757812 C48.75625814 52.7566162 48.97145529 51.06807142 48.99707031 48.21728516 C49.00667786 47.35273712 49.0162854 46.48818909 49.02618408 45.59744263 C49.0325589 44.20052689 49.0325589 44.20052689 49.0390625 42.77539062 C49.04761261 41.33460648 49.04761261 41.33460648 49.05633545 39.86471558 C49.06578208 37.83218486 49.07231809 35.79963886 49.07617188 33.76708984 C49.08587832 30.66151155 49.11690536 27.55659487 49.1484375 24.45117188 C49.15496767 22.47591539 49.16021809 20.50065417 49.1640625 18.52539062 C49.1764093 17.59816193 49.1887561 16.67093323 49.20147705 15.71560669 C49.18483134 10.88538975 49.13719073 7.35356862 45.8359375 3.51757812 C43.07497558 2.59725748 41.3864308 2.38206034 38.53564453 2.35644531 C37.6710965 2.34683777 36.80654846 2.33723022 35.915802 2.32733154 C34.51888626 2.32095673 34.51888626 2.32095673 33.09375 2.31445312 C32.13322723 2.30875305 31.17270447 2.30305298 30.18307495 2.29718018 C28.15054424 2.28773355 26.11799823 2.28119753 24.08544922 2.27734375 C20.97987093 2.2676373 17.87495424 2.23661026 14.76953125 2.20507812 C12.79427476 2.19854795 10.81901354 2.19329754 8.84375 2.18945312 C7.9165213 2.17710632 6.9892926 2.16475952 6.03396606 2.15203857 C1.20374912 2.16868429 -2.328072 2.21632489 -6.1640625 5.51757812 Z " fill="#000000" transform="translate(19.1640625,9.482421875)"/>
<path d="M0 0 C0.66 0 1.32 0 2 0 C2 0.66 2 1.32 2 2 C1.34 2 0.68 2 0 2 C0 1.34 0 0.68 0 0 Z " fill="#000000" transform="translate(61,63)"/>
<path d="M0 0 C0.66 0 1.32 0 2 0 C2 0.66 2 1.32 2 2 C1.34 2 0.68 2 0 2 C0 1.34 0 0.68 0 0 Z " fill="#000000" transform="translate(57,63)"/>
<path d="M0 0 C0.66 0 1.32 0 2 0 C2 0.66 2 1.32 2 2 C1.34 2 0.68 2 0 2 C0 1.34 0 0.68 0 0 Z " fill="#000000" transform="translate(53,63)"/>
<path d="M0 0 C0.66 0 1.32 0 2 0 C2 0.66 2 1.32 2 2 C1.34 2 0.68 2 0 2 C0 1.34 0 0.68 0 0 Z " fill="#000000" transform="translate(49,63)"/>
<path d="M0 0 C0.66 0 1.32 0 2 0 C2 0.66 2 1.32 2 2 C1.34 2 0.68 2 0 2 C0 1.34 0 0.68 0 0 Z " fill="#000000" transform="translate(45,63)"/>
<path d="M0 0 C0.66 0 1.32 0 2 0 C2 0.66 2 1.32 2 2 C1.34 2 0.68 2 0 2 C0 1.34 0 0.68 0 0 Z " fill="#000000" transform="translate(41,63)"/>
<path d="M0 0 C0.66 0 1.32 0 2 0 C2 0.66 2 1.32 2 2 C1.34 2 0.68 2 0 2 C0 1.34 0 0.68 0 0 Z " fill="#000000" transform="translate(37,63)"/>
<path d="M0 0 C0.66 0 1.32 0 2 0 C2 0.66 2 1.32 2 2 C1.34 2 0.68 2 0 2 C0 1.34 0 0.68 0 0 Z " fill="#000000" transform="translate(33,63)"/>
<path d="M0 0 C0.66 0 1.32 0 2 0 C2 0.66 2 1.32 2 2 C1.34 2 0.68 2 0 2 C0 1.34 0 0.68 0 0 Z " fill="#000000" transform="translate(29,63)"/>
<path d="M0 0 C0.66 0 1.32 0 2 0 C2 0.66 2 1.32 2 2 C1.34 2 0.68 2 0 2 C0 1.34 0 0.68 0 0 Z " fill="#000000" transform="translate(25,63)"/>
<path d="M0 0 C0.66 0 1.32 0 2 0 C2 0.66 2 1.32 2 2 C1.34 2 0.68 2 0 2 C0 1.34 0 0.68 0 0 Z " fill="#000000" transform="translate(21,63)"/>
<path d="M0 0 C0.66 0 1.32 0 2 0 C2 0.66 2 1.32 2 2 C1.34 2 0.68 2 0 2 C0 1.34 0 0.68 0 0 Z " fill="#000000" transform="translate(17,63)"/>
<path d="M0 0 C0.66 0 1.32 0 2 0 C2 0.66 2 1.32 2 2 C1.34 2 0.68 2 0 2 C0 1.34 0 0.68 0 0 Z " fill="#000000" transform="translate(61,15)"/>
<path d="M0 0 C0.66 0 1.32 0 2 0 C2 0.66 2 1.32 2 2 C1.34 2 0.68 2 0 2 C0 1.34 0 0.68 0 0 Z " fill="#000000" transform="translate(57,15)"/>
<path d="M0 0 C0.66 0 1.32 0 2 0 C2 0.66 2 1.32 2 2 C1.34 2 0.68 2 0 2 C0 1.34 0 0.68 0 0 Z " fill="#000000" transform="translate(53,15)"/>
<path d="M0 0 C0.66 0 1.32 0 2 0 C2 0.66 2 1.32 2 2 C1.34 2 0.68 2 0 2 C0 1.34 0 0.68 0 0 Z " fill="#000000" transform="translate(49,15)"/>
<path d="M0 0 C0.66 0 1.32 0 2 0 C2 0.66 2 1.32 2 2 C1.34 2 0.68 2 0 2 C0 1.34 0 0.68 0 0 Z " fill="#000000" transform="translate(45,15)"/>
<path d="M0 0 C0.66 0 1.32 0 2 0 C2 0.66 2 1.32 2 2 C1.34 2 0.68 2 0 2 C0 1.34 0 0.68 0 0 Z " fill="#000000" transform="translate(41,15)"/>
<path d="M0 0 C0.66 0 1.32 0 2 0 C2 0.66 2 1.32 2 2 C1.34 2 0.68 2 0 2 C0 1.34 0 0.68 0 0 Z " fill="#000000" transform="translate(37,15)"/>
<path d="M0 0 C0.66 0 1.32 0 2 0 C2 0.66 2 1.32 2 2 C1.34 2 0.68 2 0 2 C0 1.34 0 0.68 0 0 Z " fill="#000000" transform="translate(33,15)"/>
<path d="M0 0 C0.66 0 1.32 0 2 0 C2 0.66 2 1.32 2 2 C1.34 2 0.68 2 0 2 C0 1.34 0 0.68 0 0 Z " fill="#000000" transform="translate(29,15)"/>
<path d="M0 0 C0.66 0 1.32 0 2 0 C2 0.66 2 1.32 2 2 C1.34 2 0.68 2 0 2 C0 1.34 0 0.68 0 0 Z " fill="#000000" transform="translate(25,15)"/>
<path d="M0 0 C0.66 0 1.32 0 2 0 C2 0.66 2 1.32 2 2 C1.34 2 0.68 2 0 2 C0 1.34 0 0.68 0 0 Z " fill="#000000" transform="translate(21,15)"/>
<path d="M0 0 C0.66 0 1.32 0 2 0 C2 0.66 2 1.32 2 2 C1.34 2 0.68 2 0 2 C0 1.34 0 0.68 0 0 Z " fill="#000000" transform="translate(17,15)"/>
</svg>
